<?xml version="1.0" standalone="no"?>
<!DOCTYPE svg PUBLIC "-//W3C//DTD SVG 20010904//EN"
 "http://www.w3.org/TR/2001/REC-SVG-20010904/DTD/svg10.dtd">
<svg version="1.0" xmlns="http://www.w3.org/2000/svg"
 width="800.000000pt" height="600.000000pt" viewBox="0 0 800.000000 600.000000"
 preserveAspectRatio="xMidYMid meet">

<g transform="translate(0.000000,600.000000) scale(0.100000,-0.100000)"
fill="#000000" stroke="none">
<path d="M3040 3876 c0 -9 18 -15 56 -19 71 -7 155 -48 187 -91 53 -69 127
-243 401 -941 l282 -720 29 0 29 0 302 724 c166 399 319 758 340 799 65 128
156 208 257 227 22 4 37 13 37 21 0 12 -50 14 -295 14 -256 0 -295 -2 -295
-15 0 -10 10 -15 33 -15 18 0 53 -10 77 -22 84 -43 110 -150 71 -293 -18 -66
-402 -1022 -431 -1074 -7 -14 -10 -12 -18 9 -5 14 -103 277 -217 585 -198 536
-207 563 -203 620 6 101 61 153 181 170 31 4 47 11 47 21 0 12 -63 14 -435 14
-360 0 -435 -2 -435 -14z"/>
</g>
</svg>
